HIERARCHY
ROOT hip
{
	OFFSET 0.000000 0.000000 0.000000 
	CHANNELS 6 Xposition Yposition Zposition Zrotation Yrotation Xrotation
	JOINT abdomen
	{
		OFFSET 0.000000 20.688101 -0.731520 
		CHANNELS 3 Zrotation Xrotation Yrotation
		JOINT chest
		{
			OFFSET 0.000000 11.704300 -0.487680 
			CHANNELS 3 Zrotation Xrotation Yrotation
			JOINT neck
			{
				OFFSET 0.000000 22.189400 -2.194560 
				CHANNELS 3 Zrotation Xrotation Yrotation
				JOINT head
				{
					OFFSET -0.243840 7.071330 1.219200 
					CHANNELS 3 Zrotation Xrotation Yrotation
					JOINT leftEye
					{
						OFFSET 4.145280 8.046740 8.046720 
						CHANNELS 3 Zrotation Xrotation Yrotation
						End Site
						{
							OFFSET 1.000000 0.000000 0.000000 
						}
					}
					JOINT rightEye
					{
						OFFSET -3.657600 8.046740 8.046720 
						CHANNELS 3 Zrotation Xrotation Yrotation
						End Site
						{
							OFFSET 1.000000 0.000000 0.000000 
						}
					}
				}
			}
			JOINT rCollar
			{
				OFFSET -2.682240 19.263399 -4.876800 
				CHANNELS 3 Zrotation Xrotation Yrotation
				JOINT rShldr
				{
					OFFSET -8.778240 -1.950730 1.463040 
					CHANNELS 3 Zrotation Xrotation Yrotation
					JOINT rForeArm
					{
						OFFSET -28.174200 -1.711500 0.487680 
						CHANNELS 3 Zrotation Xrotation Yrotation
						JOINT rHand
						{
							OFFSET -22.587900 0.773209 7.071360 
							CHANNELS 3 Zrotation Xrotation Yrotation
							JOINT rThumb1
							{
								OFFSET -1.219200 -0.487915 3.413760 
								CHANNELS 3 Zrotation Xrotation Yrotation
								JOINT rThumb2
								{
									OFFSET -3.370350 -0.524490 3.413760 
									CHANNELS 3 Zrotation Xrotation Yrotation
									End Site
									{
										OFFSET -1.782710 -1.182140 1.430490 
									}
								}
							}
							JOINT rIndex1
							{
								OFFSET -7.759470 0.938293 5.608320 
								CHANNELS 3 Zrotation Xrotation Yrotation
								JOINT rIndex2
								{
									OFFSET -2.540570 -0.884171 1.565380 
									CHANNELS 3 Zrotation Xrotation Yrotation
									End Site
									{
										OFFSET -1.625190 -0.234802 1.165020 
									}
								}
							}
							JOINT rMid1
							{
								OFFSET -8.247140 1.182130 3.413760 
								CHANNELS 3 Zrotation Xrotation Yrotation
								JOINT rMid2
								{
									OFFSET -3.101650 -0.590103 1.064700 
									CHANNELS 3 Zrotation Xrotation Yrotation
									End Site
									{
										OFFSET -2.485470 -0.328903 0.837420 
									}
								}
							}
							JOINT rRing1
							{
								OFFSET -8.828220 0.546677 1.516780 
								CHANNELS 3 Zrotation Xrotation Yrotation
								JOINT rRing2
								{
									OFFSET -2.609340 -0.819778 -0.019849 
									CHANNELS 3 Zrotation Xrotation Yrotation
									End Site
									{
										OFFSET -2.338420 -0.294052 0.168128 
									}
								}
							}
							JOINT rPinky1
							{
								OFFSET -8.272020 -0.047791 -0.458400 
								CHANNELS 3 Zrotation Xrotation Yrotation
								JOINT rPinky2
								{
									OFFSET -1.827340 -0.647385 -0.700984 
									CHANNELS 3 Zrotation Xrotation Yrotation
									End Site
									{
										OFFSET -1.692250 -0.517670 -0.607171 
									}
								}
							}
						}
					}
				}
			}
			JOINT lCollar
			{
				OFFSET 2.682240 19.263399 -4.876800 
				CHANNELS 3 Zrotation Xrotation Yrotation
				JOINT lShldr
				{
					OFFSET 8.778240 -1.950730 1.463040 
					CHANNELS 3 Zrotation Xrotation Yrotation
					JOINT lForeArm
					{
						OFFSET 28.174200 -1.711500 0.487680 
						CHANNELS 3 Zrotation Xrotation Yrotation
						JOINT lHand
						{
							OFFSET 22.587900 0.773209 7.071360 
							CHANNELS 3 Zrotation Xrotation Yrotation
							JOINT lThumb1
							{
								OFFSET 1.219200 -0.487915 3.413760 
								CHANNELS 3 Zrotation Xrotation Yrotation
								JOINT lThumb2
								{
									OFFSET 3.370350 -0.524490 3.413760 
									CHANNELS 3 Zrotation Xrotation Yrotation
									End Site
									{
										OFFSET 1.782710 -1.182140 1.430490 
									}
								}
							}
							JOINT lIndex1
							{
								OFFSET 7.759470 0.938293 5.608320 
								CHANNELS 3 Zrotation Xrotation Yrotation
								JOINT lIndex2
								{
									OFFSET 2.540570 -0.884171 1.565380 
									CHANNELS 3 Zrotation Xrotation Yrotation
									End Site
									{
										OFFSET 1.625190 -0.234802 1.165020 
									}
								}
							}
							JOINT lMid1
							{
								OFFSET 8.247140 1.182130 3.413760 
								CHANNELS 3 Zrotation Xrotation Yrotation
								JOINT lMid2
								{
									OFFSET 3.101650 -0.590103 1.064700 
									CHANNELS 3 Zrotation Xrotation Yrotation
									End Site
									{
										OFFSET 2.485470 -0.328903 0.837420 
									}
								}
							}
							JOINT lRing1
							{
								OFFSET 8.828220 0.546677 1.516780 
								CHANNELS 3 Zrotation Xrotation Yrotation
								JOINT lRing2
								{
									OFFSET 2.609340 -0.819778 -0.019849 
									CHANNELS 3 Zrotation Xrotation Yrotation
									End Site
									{
										OFFSET 2.338420 -0.294052 0.168128 
									}
								}
							}
							JOINT lPinky1
							{
								OFFSET 8.272020 -0.047791 -0.458400 
								CHANNELS 3 Zrotation Xrotation Yrotation
								JOINT lPinky2
								{
									OFFSET 1.827340 -0.647385 -0.700984 
									CHANNELS 3 Zrotation Xrotation Yrotation
									End Site
									{
										OFFSET 1.692250 -0.517670 -0.607171 
									}
								}
							}
						}
					}
				}
			}
		}
	}
	JOINT rButtock
	{
		OFFSET -8.778240 4.350840 1.219200 
		CHANNELS 3 Zrotation Xrotation Yrotation
		JOINT rThigh
		{
			OFFSET 0.000000 -1.706870 -2.194560 
			CHANNELS 3 Zrotation Xrotation Yrotation
			JOINT rShin
			{
				OFFSET 0.000000 -36.819901 0.731520 
				CHANNELS 3 Zrotation Xrotation Yrotation
				JOINT rFoot
				{
					OFFSET 0.731520 -45.110401 -5.120640 
					CHANNELS 3 Zrotation Xrotation Yrotation
					End Site
					{
						OFFSET -1.122100 -3.699640 12.103000 
					}
				}
			}
		}
	}
	JOINT lButtock
	{
		OFFSET 8.778240 4.350840 1.219200 
		CHANNELS 3 Zrotation Xrotation Yrotation
		JOINT lThigh
		{
			OFFSET 0.000000 -1.706870 -2.194560 
			CHANNELS 3 Zrotation Xrotation Yrotation
			JOINT lShin
			{
				OFFSET 0.000000 -36.819901 0.731520 
				CHANNELS 3 Zrotation Xrotation Yrotation
				JOINT lFoot
				{
					OFFSET -0.731520 -45.110401 -5.120640 
					CHANNELS 3 Zrotation Xrotation Yrotation
					End Site
					{
						OFFSET 1.122100 -3.699640 12.103000 
					}
				}
			}
		}
	}
}
MOTION
Frames: 8
Frame Time: 0.040000
0.000000 0.000000 -190.000000 0.000000 0.000000 0.000000 -2.399400 9.054200 2.003600 -0.010200 -0.011800 0.049900 -10.293700 3.944400 -5.074400 13.710500 -7.500700 -6.731800 0.000000 0.000000 0.000000 0.000000 0.000000 0.000000 0.000000 0.000000 0.000000 22.399799 11.377800 66.028099 -26.349001 -18.756100 48.203800 0.484700 3.271300 -0.262500 0.000000 0.000000 0.000000 0.000000 0.000000 0.000000 0.000000 0.000000 0.000000 0.023500 0.013400 0.013600 0.000000 0.000000 0.000000 0.029900 0.008500 0.015800 0.000000 0.000000 0.000000 0.015400 0.020800 0.035100 0.000000 0.000000 0.000000 0.027600 -0.022200 -0.029300 0.000000 0.000000 0.000000 -32.391701 7.815100 -53.007000 23.187500 -24.344000 -68.245003 -2.394900 -2.505200 -5.330100 0.000000 0.000000 0.000000 0.000000 0.000000 0.000000 0.000000 0.000000 0.000000 -0.013200 0.006100 -0.005200 0.000000 0.000000 0.000000 -0.032800 0.030100 -0.004900 0.000000 0.000000 0.000000 -0.030000 0.004100 -0.032300 0.000000 0.000000 0.000000 -0.003800 -0.018400 0.013800 0.000000 0.000000 0.000000 -1.806500 -16.564199 -5.232500 5.302600 13.253400 -1.851200 -1.800300 -10.846600 -8.514000 0.000000 0.000000 0.000000 7.403300 -12.039300 -5.621900 1.872100 20.398199 -1.566700 3.766900 -15.411900 7.020800 
0.000000 0.000000 -190.000000 0.000000 0.000000 0.000000 -5.580100 9.410100 2.145000 -0.010200 -0.011800 0.049800 -10.421200 3.944400 -4.829200 14.621400 -8.142000 -6.516800 0.000000 0.000000 0.000000 0.000000 0.000000 0.000000 0.000000 0.000000 0.000000 22.055201 17.189699 70.630600 -27.120001 -24.649900 54.610298 0.650600 -1.902700 0.426200 0.000000 0.000000 0.000000 0.000000 0.000000 0.000000 0.000000 0.000000 0.000000 0.023400 0.013400 0.013600 0.000000 0.000000 0.000000 0.029800 0.008500 0.015700 0.000000 0.000000 0.000000 0.015400 0.020700 0.035000 0.000000 0.000000 0.000000 0.027500 -0.022100 -0.029200 0.000000 0.000000 0.000000 -38.194302 10.496700 -55.401798 23.217199 -24.418100 -67.597000 -2.238300 -3.462600 -5.349100 0.000000 0.000000 0.000000 0.000000 0.000000 0.000000 0.000000 0.000000 0.000000 -0.013200 0.006100 -0.005100 0.000000 0.000000 0.000000 -0.032700 0.030000 -0.004900 0.000000 0.000000 0.000000 -0.029900 0.004100 -0.032300 0.000000 0.000000 0.000000 -0.003800 -0.018300 0.013700 0.000000 0.000000 0.000000 -5.028900 -15.784000 -4.808700 4.900700 11.348600 -2.187000 -1.668700 -11.324400 -8.555700 0.000000 0.000000 0.000000 8.183400 -11.520300 -9.070600 1.986800 33.955101 -0.833400 4.596400 -16.925800 7.972000 
0.000000 0.000000 -190.000000 0.000000 0.000000 0.000000 -5.740400 9.111900 2.574200 -0.010200 -0.011800 0.049800 -10.452000 3.944400 -4.692800 14.681200 -8.443600 -6.042400 0.000000 0.000000 0.000000 0.000000 0.000000 0.000000 0.000000 0.000000 0.000000 22.266500 19.294701 70.282303 -27.052700 -23.561501 53.802898 0.718900 -2.308600 0.458700 0.000000 0.000000 0.000000 0.000000 0.000000 0.000000 0.000000 0.000000 0.000000 0.023400 0.013400 0.013600 0.000000 0.000000 0.000000 0.029800 0.008500 0.015700 0.000000 0.000000 0.000000 0.015400 0.020700 0.035000 0.000000 0.000000 0.000000 0.027500 -0.022100 -0.029200 0.000000 0.000000 0.000000 -39.894001 10.615700 -54.881302 23.100800 -24.260599 -66.925003 -2.286300 -2.815100 -5.436600 0.000000 0.000000 0.000000 0.000000 0.000000 0.000000 0.000000 0.000000 0.000000 -0.013200 0.006100 -0.005100 0.000000 0.000000 0.000000 -0.032700 0.030000 -0.004900 0.000000 0.000000 0.000000 -0.029900 0.004100 -0.032300 0.000000 0.000000 0.000000 -0.003800 -0.018300 0.013700 0.000000 0.000000 0.000000 -4.764200 -15.848200 -4.857400 4.709600 11.594100 -2.180900 -1.696300 -11.282100 -8.532200 0.000000 0.000000 0.000000 6.394400 -12.745900 -7.905500 0.734000 27.075100 0.290500 4.708100 -16.801201 8.311700 
0.000000 0.000000 -190.000000 0.000000 0.000000 0.000000 -5.591400 9.371900 1.673200 -0.010200 -0.011800 0.049800 -10.409300 3.944400 -4.809800 14.604000 -8.136000 -6.664400 0.000000 0.000000 0.000000 0.000000 0.000000 0.000000 0.000000 0.000000 0.000000 22.013901 17.855101 70.519402 -27.232000 -24.830400 54.589401 0.647800 -1.746600 0.366400 0.000000 0.000000 0.000000 0.000000 0.000000 0.000000 0.000000 0.000000 0.000000 0.023400 0.013400 0.013600 0.000000 0.000000 0.000000 0.029800 0.008500 0.015700 0.000000 0.000000 0.000000 0.015400 0.020700 0.035000 0.000000 0.000000 0.000000 0.027500 -0.022100 -0.029200 0.000000 0.000000 0.000000 -37.444801 10.651800 -53.670399 23.155001 -24.456100 -68.627701 -2.188200 -4.450900 -5.243900 0.000000 0.000000 0.000000 0.000000 0.000000 0.000000 0.000000 0.000000 0.000000 -0.013200 0.006100 -0.005100 0.000000 0.000000 0.000000 -0.032700 0.030000 -0.004900 0.000000 0.000000 0.000000 -0.029900 0.004100 -0.032300 0.000000 0.000000 0.000000 -0.003800 -0.018300 0.013700 0.000000 0.000000 0.000000 -4.731500 -15.714100 -4.885800 4.955700 11.471800 -2.187800 -1.667500 -11.287400 -8.570700 0.000000 0.000000 0.000000 8.439100 -12.256400 -8.290000 2.016400 33.912201 -0.985000 4.552800 -16.609400 7.892100 
0.000000 0.000000 -190.000000 0.000000 0.000000 0.000000 -2.505700 9.251100 3.250300 -0.010200 -0.011800 0.049900 -10.354100 3.868500 -5.615700 13.692400 -7.529800 -6.978200 0.000000 0.000000 0.000000 0.000000 0.000000 0.000000 0.000000 0.000000 0.000000 22.308500 12.748600 68.270599 -26.966200 -21.191401 45.843102 0.193100 -1.004600 -0.106500 0.000000 0.000000 0.000000 0.000000 0.000000 0.000000 0.000000 0.000000 0.000000 0.023500 0.013400 0.013600 0.000000 0.000000 0.000000 0.029900 0.008500 0.015800 0.000000 0.000000 0.000000 0.015400 0.020800 0.035100 0.000000 0.000000 0.000000 0.027600 -0.022200 -0.029300 0.000000 0.000000 0.000000 -32.923801 9.052100 -53.901600 23.135201 -24.202999 -66.842201 -2.044800 -1.870200 -5.262800 0.000000 0.000000 0.000000 0.000000 0.000000 0.000000 0.000000 0.000000 0.000000 -0.013200 0.006100 -0.005200 0.000000 0.000000 0.000000 -0.032800 0.030100 -0.004900 0.000000 0.000000 0.000000 -0.030000 0.004100 -0.032300 0.000000 0.000000 0.000000 -0.003800 -0.018400 0.013800 0.000000 0.000000 0.000000 -1.264000 -15.943800 -5.207600 5.370000 11.932700 -1.914800 -1.832900 -11.061200 -8.594100 0.000000 0.000000 0.000000 6.874400 -11.411700 -8.060500 1.880300 20.634800 -1.501500 3.860300 -15.941900 7.112700 
0.000000 0.000000 -190.000000 0.000000 0.000000 0.000000 -5.591400 9.371900 1.673200 -0.010200 -0.011800 0.049800 -10.409300 3.944400 -4.809800 14.604000 -8.136000 -6.664400 0.000000 0.000000 0.000000 0.000000 0.000000 0.000000 0.000000 0.000000 0.000000 22.013901 17.855101 70.519402 -27.232000 -24.830400 54.589401 0.647800 -1.746600 0.366400 0.000000 0.000000 0.000000 0.000000 0.000000 0.000000 0.000000 0.000000 0.000000 0.023400 0.013400 0.013600 0.000000 0.000000 0.000000 0.029800 0.008500 0.015700 0.000000 0.000000 0.000000 0.015400 0.020700 0.035000 0.000000 0.000000 0.000000 0.027500 -0.022100 -0.029200 0.000000 0.000000 0.000000 -37.444801 10.651800 -53.670399 23.155001 -24.456100 -68.627701 -2.188200 -4.450900 -5.243900 0.000000 0.000000 0.000000 0.000000 0.000000 0.000000 0.000000 0.000000 0.000000 -0.013200 0.006100 -0.005100 0.000000 0.000000 0.000000 -0.032700 0.030000 -0.004900 0.000000 0.000000 0.000000 -0.029900 0.004100 -0.032300 0.000000 0.000000 0.000000 -0.003800 -0.018300 0.013700 0.000000 0.000000 0.000000 -4.731500 -15.714100 -4.885800 4.955700 11.471800 -2.187800 -1.667500 -11.287400 -8.570700 0.000000 0.000000 0.000000 8.439100 -12.256400 -8.290000 2.016400 33.912201 -0.985000 4.552800 -16.609400 7.892100 
0.000000 0.000000 -190.000000 0.000000 0.000000 0.000000 -2.486400 9.293400 2.368100 -0.010200 -0.011800 0.049900 -10.347100 3.944400 -5.248300 13.755400 -7.360100 -7.076500 0.000000 0.000000 0.000000 0.000000 0.000000 0.000000 0.000000 0.000000 0.000000 22.049700 14.437900 69.569603 -27.379900 -24.658300 53.059399 0.322900 -0.542100 -0.043500 0.000000 0.000000 0.000000 0.000000 0.000000 0.000000 0.000000 0.000000 0.000000 0.023500 0.013400 0.013600 0.000000 0.000000 0.000000 0.029900 0.008500 0.015800 0.000000 0.000000 0.000000 0.015400 0.020800 0.035100 0.000000 0.000000 0.000000 0.027600 -0.022200 -0.029300 0.000000 0.000000 0.000000 -32.311699 9.420700 -52.773998 23.168800 -24.278299 -68.369499 -1.952000 -3.295400 -5.078000 0.000000 0.000000 0.000000 0.000000 0.000000 0.000000 0.000000 0.000000 0.000000 -0.013200 0.006100 -0.005200 0.000000 0.000000 0.000000 -0.032800 0.030100 -0.004900 0.000000 0.000000 0.000000 -0.030000 0.004100 -0.032300 0.000000 0.000000 0.000000 -0.003800 -0.018400 0.013800 0.000000 0.000000 0.000000 -1.857400 -16.501101 -5.273000 5.383800 12.720300 -1.884200 -1.820000 -11.005100 -8.703500 0.000000 0.000000 0.000000 7.250300 -11.386900 -6.378400 1.845800 20.338100 -1.559400 3.783400 -15.579900 6.982200 
0.000000 0.000000 -190.000000 0.000000 0.000000 0.000000 -5.751400 9.052700 2.139700 -0.010200 -0.011800 0.049800 -10.438600 3.944400 -4.665500 14.664800 -8.335300 -6.157900 0.000000 0.000000 0.000000 0.000000 0.000000 0.000000 0.000000 0.000000 0.000000 22.230400 20.014200 70.197800 -27.165001 -23.744499 54.034599 0.715200 -2.129000 0.399700 0.000000 0.000000 0.000000 0.000000 0.000000 0.000000 0.000000 0.000000 0.000000 0.023400 0.013400 0.013600 0.000000 0.000000 0.000000 0.029800 0.008500 0.015700 0.000000 0.000000 0.000000 0.015400 0.020700 0.035000 0.000000 0.000000 0.000000 0.027500 -0.022100 -0.029200 0.000000 0.000000 0.000000 -39.239899 10.713500 -53.130798 23.039000 -24.290199 -68.020401 -2.237300 -4.017500 -5.330500 0.000000 0.000000 0.000000 0.000000 0.000000 0.000000 0.000000 0.000000 0.000000 -0.013200 0.006100 -0.005100 0.000000 0.000000 0.000000 -0.032700 0.030000 -0.004900 0.000000 0.000000 0.000000 -0.029900 0.004100 -0.032300 0.000000 0.000000 0.000000 -0.003800 -0.018300 0.013700 0.000000 0.000000 0.000000 -4.487500 -15.868800 -4.883300 4.764800 11.719800 -2.181500 -1.695300 -11.246500 -8.546800 0.000000 0.000000 0.000000 6.753200 -13.398800 -7.062300 0.771700 27.163200 0.015000 4.666500 -16.474899 8.188500 
